<?xml version="1.0" standalone="no"?>
<!DOCTYPE svg PUBLIC "-//W3C//DTD SVG 20010904//EN"
 "http://www.w3.org/TR/2001/REC-SVG-20010904/DTD/svg10.dtd">
<svg version="1.0" xmlns="http://www.w3.org/2000/svg"
 width="108.000000pt" height="108.000000pt" viewBox="0 0 108.000000 108.000000"
 preserveAspectRatio="xMidYMid meet">
<metadata>
Created by potrace 1.11, written by Peter Selinger 2001-2013
</metadata>
<g transform="translate(0.000000,108.000000) scale(0.100000,-0.100000)"
fill="#000000" stroke="none">
<path d="M365 1017 c-27 -10 -71 -18 -97 -19 -26 0 -48 -4 -48 -8 0 -4 -25
-32 -55 -61 -58 -56 -70 -77 -60 -108 9 -28 32 -33 53 -11 18 20 19 19 44 -30
22 -43 25 -60 23 -125 -5 -105 -26 -164 -83 -227 -20 -22 -24 -34 -20 -65 11
-81 78 -181 140 -210 13 -6 67 -23 122 -37 58 -16 112 -37 132 -53 l35 -26 22
21 c27 25 75 44 183 72 101 27 142 59 185 147 43 85 42 122 -4 172 -19 21 -37
47 -40 57 -36 123 -38 205 -7 270 22 45 37 55 46 30 7 -17 42 -9 53 13 13 24
-2 49 -71 123 -45 47 -68 64 -77 59 -8 -5 -38 -2 -70 6 -31 8 -75 19 -99 25
-33 9 -55 9 -88 0 -32 -9 -51 -9 -65 -2 -27 15 -95 9 -154 -13z"/>
</g>
</svg>
